<svg width="300" height="200" viewBox="0 0 300 200" fill="none" xmlns="http://www.w3.org/2000/svg">
  <rect width="300" height="200" fill="#F8FAFC"/>
  <rect x="35" y="20" width="230" height="160" rx="3" fill="#FFFFFF" stroke="#E2E8F0"/>
  <rect x="50" y="32" width="110" height="10" rx="2" fill="#0F172A"/>
  <rect x="50" y="46" width="140" height="4" rx="1" fill="#FFA259"/>
  <rect x="50" y="54" width="200" height="3" rx="1" fill="#94A3B8"/>
  <line x1="50" y1="64" x2="250" y2="64" stroke="#0F172A" stroke-width="1.5"/>
  <rect x="50" y="74" width="70" height="5" rx="1" fill="#0F172A"/>
  <rect x="50" y="83" width="190" height="3" rx="1" fill="#64748B"/>
  <rect x="50" y="90" width="170" height="3" rx="1" fill="#64748B"/>
  <rect x="50" y="104" width="60" height="5" rx="1" fill="#0F172A"/>
  <rect x="50" y="113" width="100" height="4" rx="1" fill="#334155"/>
  <rect x="58" y="121" width="170" height="3" rx="1" fill="#64748B"/>
  <rect x="58" y="128" width="150" height="3" rx="1" fill="#64748B"/>
  <rect x="50" y="139" width="100" height="4" rx="1" fill="#334155"/>
  <rect x="58" y="147" width="160" height="3" rx="1" fill="#64748B"/>
</svg>
